STARTFONT 2.1
FONT -gnu-fixed-medium-r-normal-h-8-160-75-75-c-80-iso10646-1
SIZE 16 75 75
FONTBOUNDINGBOX 8 16 0 -2
STARTPROPERTIES 18
FONTNAME_REGISTRY ""
FOUNDRY "gnu"
FAMILY_NAME "fixed"
WEIGHT_NAME "medium"
SLANT "r"
SETWIDTH_NAME "normal"
ADD_STYLE_NAME "h"
PIXEL_SIZE 16
POINT_SIZE 160
RESOLUTION_X 75
RESOLUTION_Y 75
SPACING "c"
AVERAGE_WIDTH 80
CHARSET_REGISTRY "iso10646"
CHARSET_ENCODING "1"
DEFAULT_CHAR 65533
FONT_ASCENT 14
FONT_DESCENT 2
ENDPROPERTIES
CHARS 45
STARTCHAR U+10D0
ENCODING 4304
SWIDTH 500 0
DWIDTH 8 0
BBX 8 16 0 -2
BITMAP 
00
00
00
00
00
00
08
04
02
22
22
1C
00
00
00
00
ENDCHAR
STARTCHAR U+10D1
ENCODING 4305
SWIDTH 500 0
DWIDTH 8 0
BBX 8 16 0 -2
BITMAP 
00
00
20
30
28
28
08
1C
22
22
22
1C
00
00
00
00
ENDCHAR
STARTCHAR U+10D2
ENCODING 4306
SWIDTH 500 0
DWIDTH 8 0
BBX 8 16 0 -2
BITMAP 
00
00
00
00
00
00
00
18
24
04
08
1C
22
22
22
1C
ENDCHAR
STARTCHAR U+10D3
ENCODING 4307
SWIDTH 500 0
DWIDTH 8 0
BBX 8 16 0 -2
BITMAP 
00
00
00
00
00
00
00
36
49
49
49
46
40
20
10
0E
ENDCHAR
STARTCHAR U+10D4
ENCODING 4308
SWIDTH 500 0
DWIDTH 8 0
BBX 8 16 0 -2
BITMAP 
00
00
00
00
00
00
00
1C
22
22
02
02
02
22
22
1C
ENDCHAR
STARTCHAR U+10D5
ENCODING 4309
SWIDTH 500 0
DWIDTH 8 0
BBX 8 16 0 -2
BITMAP 
00
00
00
00
00
00
00
1C
22
22
02
0C
02
22
22
1C
ENDCHAR
STARTCHAR U+10D6
ENCODING 4310
SWIDTH 500 0
DWIDTH 8 0
BBX 8 16 0 -2
BITMAP 
00
00
30
48
48
48
30
1C
22
22
22
1C
00
00
00
00
ENDCHAR
STARTCHAR U+10D7
ENCODING 4311
SWIDTH 500 0
DWIDTH 8 0
BBX 8 16 0 -2
BITMAP 
00
00
00
00
00
00
00
36
49
49
49
32
00
00
00
00
ENDCHAR
STARTCHAR U+10D8
ENCODING 4312
SWIDTH 500 0
DWIDTH 8 0
BBX 8 16 0 -2
BITMAP 
00
00
00
00
00
00
00
1C
22
22
22
14
00
00
00
00
ENDCHAR
STARTCHAR U+10D9
ENCODING 4313
SWIDTH 500 0
DWIDTH 8 0
BBX 8 16 0 -2
BITMAP 
00
00
00
00
00
00
00
04
02
02
02
0C
02
22
22
1C
ENDCHAR
STARTCHAR U+10DA
ENCODING 4314
SWIDTH 500 0
DWIDTH 8 0
BBX 8 16 0 -2
BITMAP 
00
00
00
00
00
00
00
2A
55
55
41
42
40
20
10
0E
ENDCHAR
STARTCHAR U+10DB
ENCODING 4315
SWIDTH 500 0
DWIDTH 8 0
BBX 8 16 0 -2
BITMAP 
00
00
1C
22
22
02
02
1E
22
22
22
1C
00
00
00
00
ENDCHAR
STARTCHAR U+10DC
ENCODING 4316
SWIDTH 500 0
DWIDTH 8 0
BBX 8 16 0 -2
BITMAP 
00
00
1E
20
20
20
20
3C
22
22
22
1C
00
00
00
00
ENDCHAR
STARTCHAR U+10DD
ENCODING 4317
SWIDTH 500 0
DWIDTH 8 0
BBX 8 16 0 -2
BITMAP 
00
00
00
00
00
00
00
36
49
49
41
22
00
00
00
00
ENDCHAR
STARTCHAR U+10DE
ENCODING 4318
SWIDTH 500 0
DWIDTH 8 0
BBX 8 16 0 -2
BITMAP 
00
00
08
04
02
02
02
0C
02
22
22
1C
00
00
00
00
ENDCHAR
STARTCHAR U+10DF
ENCODING 4319
SWIDTH 500 0
DWIDTH 8 0
BBX 8 16 0 -2
BITMAP 
00
00
00
00
00
00
00
0E
12
4A
4A
32
02
02
22
1C
ENDCHAR
STARTCHAR U+10E0
ENCODING 4320
SWIDTH 500 0
DWIDTH 8 0
BBX 8 16 0 -2
BITMAP 
00
00
1E
20
40
40
40
76
49
49
41
22
00
00
00
00
ENDCHAR
STARTCHAR U+10E1
ENCODING 4321
SWIDTH 500 0
DWIDTH 8 0
BBX 8 16 0 -2
BITMAP 
00
00
20
20
20
20
20
24
22
22
22
1C
00
00
00
00
ENDCHAR
STARTCHAR U+10E2
ENCODING 4322
SWIDTH 500 0
DWIDTH 8 0
BBX 8 16 0 -2
BITMAP 
00
00
00
00
00
00
00
0C
12
12
3C
4A
52
42
42
3C
ENDCHAR
STARTCHAR U+10E3
ENCODING 4323
SWIDTH 500 0
DWIDTH 8 0
BBX 8 16 0 -2
BITMAP 
00
00
00
00
00
00
00
6C
12
12
02
02
02
22
22
1C
ENDCHAR
STARTCHAR U+10E4
ENCODING 4324
SWIDTH 500 0
DWIDTH 8 0
BBX 8 16 0 -2
BITMAP 
00
00
00
00
00
00
00
36
49
49
49
32
01
01
01
1E
ENDCHAR
STARTCHAR U+10E5
ENCODING 4325
SWIDTH 500 0
DWIDTH 8 0
BBX 8 16 0 -2
BITMAP 
00
00
02
02
02
02
02
0E
12
12
02
02
02
22
22
1C
ENDCHAR
STARTCHAR U+10E6
ENCODING 4326
SWIDTH 500 0
DWIDTH 8 0
BBX 8 16 0 -2
BITMAP 
00
00
00
00
00
00
00
36
49
49
41
42
40
40
20
1C
ENDCHAR
STARTCHAR U+10E7
ENCODING 4327
SWIDTH 500 0
DWIDTH 8 0
BBX 8 16 0 -2
BITMAP 
00
00
00
00
00
00
00
12
22
22
22
1E
02
02
22
1C
ENDCHAR
STARTCHAR U+10E8
ENCODING 4328
SWIDTH 500 0
DWIDTH 8 0
BBX 8 16 0 -2
BITMAP 
00
00
6C
12
12
02
02
1E
22
22
22
1C
00
00
00
00
ENDCHAR
STARTCHAR U+10E9
ENCODING 4329
SWIDTH 500 0
DWIDTH 8 0
BBX 8 16 0 -2
BITMAP 
00
00
18
24
24
28
30
3C
22
22
22
24
00
00
00
00
ENDCHAR
STARTCHAR U+10EA
ENCODING 4330
SWIDTH 500 0
DWIDTH 8 0
BBX 8 16 0 -2
BITMAP 
00
00
00
00
00
00
00
24
22
22
22
2C
22
22
22
1C
ENDCHAR
STARTCHAR U+10EB
ENCODING 4331
SWIDTH 500 0
DWIDTH 8 0
BBX 8 16 0 -2
BITMAP 
00
00
02
02
02
02
02
1E
22
22
22
1C
00
00
00
00
ENDCHAR
STARTCHAR U+10EC
ENCODING 4332
SWIDTH 500 0
DWIDTH 8 0
BBX 8 16 0 -2
BITMAP 
00
00
1B
24
24
20
20
3C
22
22
22
24
28
21
20
20
ENDCHAR
STARTCHAR U+10ED
ENCODING 4333
SWIDTH 500 0
DWIDTH 8 0
BBX 8 16 0 -2
BITMAP 
00
00
08
08
08
3A
4C
4C
3A
08
0C
02
02
22
22
1C
ENDCHAR
STARTCHAR U+10EE
ENCODING 4334
SWIDTH 500 0
DWIDTH 8 0
BBX 8 16 0 -2
BITMAP 
00
00
20
20
20
20
20
3C
22
22
22
1C
00
00
00
00
ENDCHAR
STARTCHAR U+10EF
ENCODING 4335
SWIDTH 500 0
DWIDTH 8 0
BBX 8 16 0 -2
BITMAP 
00
00
00
00
00
00
08
08
3E
08
0C
02
02
22
22
1C
ENDCHAR
STARTCHAR U+10F0
ENCODING 4336
SWIDTH 500 0
DWIDTH 8 0
BBX 8 16 0 -2
BITMAP 
00
00
02
02
0C
02
02
0C
02
22
22
1C
00
00
00
00
ENDCHAR
STARTCHAR U+10F1
ENCODING 4337
SWIDTH 500 0
DWIDTH 8 0
BBX 8 16 0 -2
BITMAP 
00
00
22
22
2C
22
22
2C
22
22
22
1C
00
00
00
00
ENDCHAR
STARTCHAR U+10F2
ENCODING 4338
SWIDTH 500 0
DWIDTH 8 0
BBX 8 16 0 -2
BITMAP 
00
00
00
00
00
00
00
1C
22
22
1C
22
00
00
00
00
ENDCHAR
STARTCHAR U+10F3
ENCODING 4339
SWIDTH 500 0
DWIDTH 8 0
BBX 8 16 0 -2
BITMAP 
00
00
00
00
00
00
00
3E
02
04
08
04
02
22
22
1C
ENDCHAR
STARTCHAR U+10F4
ENCODING 4340
SWIDTH 500 0
DWIDTH 8 0
BBX 8 16 0 -2
BITMAP 
00
00
00
00
00
06
08
08
04
02
02
0C
02
22
22
1C
ENDCHAR
STARTCHAR U+10F5
ENCODING 4341
SWIDTH 500 0
DWIDTH 8 0
BBX 8 16 0 -2
BITMAP 
00
00
38
44
44
3E
04
3E
44
44
44
38
00
00
00
00
ENDCHAR
STARTCHAR U+10F6
ENCODING 4342
SWIDTH 500 0
DWIDTH 8 0
BBX 8 16 0 -2
BITMAP 
00
00
00
00
20
10
10
10
38
54
54
38
10
10
10
08
ENDCHAR
STARTCHAR U+10F7
ENCODING 4343
SWIDTH 500 0
DWIDTH 8 0
BBX 8 16 0 -2
BITMAP 
00
00
00
00
00
00
00
1C
22
02
04
08
10
20
22
1C
ENDCHAR
STARTCHAR U+10F8
ENCODING 4344
SWIDTH 500 0
DWIDTH 8 0
BBX 8 16 0 -2
BITMAP 
00
00
00
00
00
00
00
24
22
22
22
3C
20
22
22
1C
ENDCHAR
STARTCHAR U+10F9
ENCODING 4345
SWIDTH 500 0
DWIDTH 8 0
BBX 8 16 0 -2
BITMAP 
00
00
00
00
00
00
00
1C
22
22
22
1C
08
01
12
0C
ENDCHAR
STARTCHAR U+10FA
ENCODING 4346
SWIDTH 500 0
DWIDTH 8 0
BBX 8 16 0 -2
BITMAP 
00
00
00
00
00
00
00
1C
22
22
20
18
04
00
00
00
ENDCHAR
STARTCHAR U+10FB
ENCODING 4347
SWIDTH 500 0
DWIDTH 8 0
BBX 8 16 0 -2
BITMAP 
00
00
00
00
00
00
00
30
30
06
06
30
30
00
00
00
ENDCHAR
STARTCHAR U+10FC
ENCODING 4348
SWIDTH 500 0
DWIDTH 8 0
BBX 8 16 0 -2
BITMAP 
00
1E
20
20
3C
22
22
1C
00
00
00
00
00
00
00
00
ENDCHAR
ENDFONT
